<svg xmlns="http://www.w3.org/2000/svg" viewBox="0 0 48 48">
  <title>Causal Civilization Engine branching terrain mark</title>
  <rect width="48" height="48" rx="8" fill="#141c1d"/>
  <path d="M7 36c7-5 13-5 20-1 5 3 9 2 14-2M7 29c7-5 13-5 20-1 5 3 9 2 14-2" fill="none" stroke="#536664" stroke-width="2" stroke-linecap="round"/>
  <path d="M12 34V19c0-4 3-7 7-7h3" fill="none" stroke="#e2b85c" stroke-width="3" stroke-linecap="round"/>
  <path d="M22 12h5c4 0 7 3 7 7v3M22 12h3c4 0 7-3 7-7" fill="none" stroke="#42c7bd" stroke-width="3" stroke-linecap="round"/>
  <path d="M34 22v8" fill="none" stroke="#e4925a" stroke-width="3" stroke-linecap="round"/>
  <circle cx="12" cy="35" r="3" fill="#f2f0e8"/>
  <circle cx="32" cy="5" r="3" fill="#42c7bd"/>
  <circle cx="34" cy="30" r="3" fill="#e4925a"/>
</svg>
