<svg xmlns="http://www.w3.org/2000/svg" width="512" height="512" viewBox="0 0 512 512" fill="none">
  <g stroke="#9DCDC2" stroke-opacity="0.28" stroke-width="1">
    <path d="M-18 88C47 44 96 42 151 69C206 96 252 101 316 66C380 31 438 38 530 99"/>
    <path d="M-25 111C43 68 97 64 154 91C211 118 259 123 322 90C385 57 446 61 535 120"/>
    <path d="M-31 136C39 94 96 89 157 115C218 141 269 148 331 116C393 84 454 88 541 145"/>
    <path d="M-35 163C36 122 96 116 161 141C226 166 279 174 340 143C401 112 463 115 546 170"/>
    <path d="M-39 193C35 153 97 146 166 171C235 196 289 205 349 175C409 145 471 148 551 201"/>
    <path d="M-42 226C34 187 99 179 173 204C247 229 301 239 360 211C419 183 480 184 556 234"/>
    <path d="M-44 262C34 224 102 215 181 240C260 265 314 276 372 250C430 224 489 224 560 270"/>
    <path d="M-43 301C38 263 107 254 192 278C277 302 330 314 387 290C444 266 501 265 563 307"/>
    <path d="M-38 342C45 306 116 296 207 320C298 344 350 356 406 334C462 312 516 310 565 347"/>
    <path d="M-28 386C57 351 130 341 227 365C324 389 375 402 430 382C485 362 535 359 565 389"/>
    <path d="M-12 432C75 399 149 389 252 413C355 437 405 450 459 432C513 414 552 410 566 433"/>
  </g>
  <g stroke="#FFD87D" stroke-opacity="0.22" stroke-width="1.2">
    <path d="M92 318C118 275 159 252 207 257C255 262 285 292 282 329C279 366 242 391 193 388C144 385 107 359 92 318Z"/>
    <path d="M111 319C133 286 165 270 202 273C239 276 262 299 259 327C256 355 228 373 191 371C154 369 125 350 111 319Z"/>
    <path d="M133 320C149 296 173 285 200 287C227 289 244 306 242 326C240 346 219 359 192 358C165 357 144 343 133 320Z"/>
  </g>
  <g fill="#55D4C5" fill-opacity="0.34">
    <circle cx="92" cy="318" r="2"/>
    <circle cx="282" cy="329" r="2"/>
    <circle cx="207" cy="257" r="2"/>
  </g>
</svg>
